# xmcd CD database file
#
# Track frame offsets:
#	150
#	11724
#	25152
#	38674
#	53571
#	67393
#	80503
#	92285
#	103513
#	116599
#	129068
#	140273
#	152933
#	168291
#	184729
#	198808
#	210756
#	224293
#	237449
#	249081
#
# Disc length: 3511 seconds
#
# Revision: 0
# Processed by: cddbd v1.5.2PL0 Copyright (c) Steve Scherf et al.
# Submitted via: CDex 1.51
#
DISCID=fb0db514
DTITLE=B.B King - 40 suosikkia CD2
DYEAR=2009
DGENRE=Blues
TTITLE0=She's Dynamite
TTITLE1=Crying Won't Help You
TTITLE2=Woke Up This Morning
TTITLE3=Please Help Me
TTITLE4=Blind Love
TTITLE5=Some Day, Somewhere
TTITLE6=Take A Swing With Me (Love You Baby)
TTITLE7=When Your Baby Packs Up And Goes
TTITLE8=Walkin' And Cryin'
TTITLE9=Please Hurry Home
TTITLE10=Everything I Do Is Wrong
TTITLE11=Mistreated Woman
TTITLE12=My Own Fault Darlin'
TTITLE13=The Other Night Blues
TTITLE14=You know i love you
TTITLE15=The Woman I Love
TTITLE16=Story from my heart and soul
TTITLE17=I need you so bad
TTITLE18=You didn't want me
TTITLE19=Why did you leave me
EXTD=YEAR: 2009
EXTT0=
EXTT1=
EXTT2=
EXTT3=
EXTT4=
EXTT5=
EXTT6=
EXTT7=
EXTT8=
EXTT9=
EXTT10=
EXTT11=
EXTT12=
EXTT13=
EXTT14=
EXTT15=
EXTT16=
EXTT17=
EXTT18=
EXTT19=
PLAYORDER=
